<svg xmlns="http://www.w3.org/2000/svg" role="img" viewBox="0 0 467 183" fill="#C8102E">
  <path d="M246.6 32.1h90.9v23.6H273v24.4h56.7v23.6H273V129h65.3v23.6h-91.7V32.1ZM.8 32.1v120.5h81.4V140H14.4V32.1H.8ZM417.9 93.6c18.1 0 31-9.3 31-24.8v-.3c0-14.8-11.4-23.7-30.8-23.7h-37.2v48.9h37v-.1Zm-50.6-61.5h51.8c14.8 0 26.7 4.5 34.2 12 5.8 5.9 9.3 14.3 9.3 23.7v.3c0 20-13.8 31.7-32.7 35.1l37 49.2h-16.7l-34.9-46.8h-34.4v46.8h-13.6V32.1ZM110.7 152.6h26.2V76l80.8 106.2V32.1h-26.1v74.2L110.7 0v152.6Z"/>
</svg>
